<svg xmlns="http://www.w3.org/2000/svg" xmlns:xlink="http://www.w3.org/1999/xlink" width="306" zoomAndPan="magnify" viewBox="0 0 229.5 248.999984" height="332" preserveAspectRatio="xMidYMid meet" version="1.0"><defs><clipPath id="cd7c40b50e"><path d="M 0 225 L 124 225 L 124 248.726562 L 0 248.726562 Z M 0 225 " clip-rule="nonzero"/></clipPath><clipPath id="5a8c5de450"><path d="M 0 0.269531 L 229 0.269531 L 229 248.726562 L 0 248.726562 Z M 0 0.269531 " clip-rule="nonzero"/></clipPath><clipPath id="6000fef417"><path d="M 0 62 L 161 62 L 161 248.726562 L 0 248.726562 Z M 0 62 " clip-rule="nonzero"/></clipPath><clipPath id="d78f57d28f"><path d="M 0 0.269531 L 229 0.269531 L 229 248.726562 L 0 248.726562 Z M 0 0.269531 " clip-rule="nonzero"/></clipPath><clipPath id="9d255d8d6b"><path d="M 149 225 L 229 225 L 229 248.726562 L 149 248.726562 Z M 149 225 " clip-rule="nonzero"/></clipPath><clipPath id="9f7fcd51b6"><path d="M 47 141 L 68 141 L 68 165 L 47 165 Z M 47 141 " clip-rule="nonzero"/></clipPath><clipPath id="6ffc6ff0ee"><path d="M 67.003906 153.003906 L 47.554688 164.230469 L 37.746094 147.238281 L 57.195312 136.007812 Z M 67.003906 153.003906 " clip-rule="nonzero"/></clipPath><clipPath id="a15aff30f8"><path d="M 47.484375 141.613281 L 47.582031 164.214844 L 67.003906 153.003906 Z M 47.484375 141.613281 " clip-rule="nonzero"/></clipPath><clipPath id="25b1bca70b"><path d="M 0.417969 0.5625 L 20.054688 0.5625 L 20.054688 23.3125 L 0.417969 23.3125 Z M 0.417969 0.5625 " clip-rule="nonzero"/></clipPath><clipPath id="5b7fa7c758"><path d="M 20.003906 12.003906 L 0.554688 23.230469 L -9.253906 6.238281 L 10.195312 -4.992188 Z M 20.003906 12.003906 " clip-rule="nonzero"/></clipPath><clipPath id="4e935d542e"><path d="M 0.484375 0.613281 L 0.582031 23.214844 L 20.003906 12.003906 Z M 0.484375 0.613281 " clip-rule="nonzero"/></clipPath><clipPath id="cf6358d545"><rect x="0" width="21" y="0" height="24"/></clipPath><clipPath id="a5cbfcf82f"><path d="M 112.097656 225.84375 L 131.71875 225.84375 L 131.71875 248.304688 L 112.097656 248.304688 Z M 112.097656 225.84375 " clip-rule="nonzero"/></clipPath><clipPath id="7b1591844b"><path d="M 131.71875 237.089844 L 112.097656 225.878906 L 112.097656 248.304688 Z M 131.71875 237.089844 " clip-rule="nonzero"/></clipPath><clipPath id="0d3be779fc"><path d="M 0.0976562 0.859375 L 19.71875 0.859375 L 19.71875 23.304688 L 0.0976562 23.304688 Z M 0.0976562 0.859375 " clip-rule="nonzero"/></clipPath><clipPath id="ed47ad0125"><path d="M 19.71875 12.089844 L 0.0976562 0.878906 L 0.0976562 23.304688 Z M 19.71875 12.089844 " clip-rule="nonzero"/></clipPath><clipPath id="c8e112d642"><rect x="0" width="20" y="0" height="24"/></clipPath></defs><g clip-path="url(#cd7c40b50e)"><path stroke-linecap="butt" transform="matrix(0.74837, -0.000000000000000557, 0.000000000000000557, 0.74837, -0.000000000000031905, 225.869672)" fill="none" stroke-linejoin="miter" d="M 0.000000000000031473 14.998043 L 149.794396 14.998043 " stroke="#2f80ff" stroke-width="30" stroke-opacity="1" stroke-miterlimit="4"/></g><g clip-path="url(#5a8c5de450)"><path stroke-linecap="butt" transform="matrix(0.374507, 0.647921, -0.647921, 0.374507, 121.818379, 41.935168)" fill="none" stroke-linejoin="miter" d="M 0.000933732 15.003489 L 283.257234 15.002701 " stroke="#2f80ff" stroke-width="30" stroke-opacity="1" stroke-miterlimit="4"/></g><g clip-path="url(#6000fef417)"><path stroke-linecap="butt" transform="matrix(-0.374185, 0.648107, -0.648107, -0.374185, 43.634008, 195.18006)" fill="none" stroke-linejoin="miter" d="M -0.00212943 14.998668 L 64.054409 14.998312 " stroke="#2f80ff" stroke-width="30" stroke-opacity="1" stroke-miterlimit="4"/></g><g clip-path="url(#d78f57d28f)"><path stroke-linecap="butt" transform="matrix(-0.377891, 0.645953, -0.645953, -0.377891, 149.944139, 11.609944)" fill="none" stroke-linejoin="miter" d="M 0.000441885 15.001196 L 219.116114 14.999425 " stroke="#2f80ff" stroke-width="30" stroke-opacity="1" stroke-miterlimit="4"/></g><g clip-path="url(#9d255d8d6b)"><path stroke-linecap="butt" transform="matrix(0.74837, -0.000000000000000928, 0.000000000000000928, 0.74837, 160.921769, 225.869672)" fill="none" stroke-linejoin="miter" d="M 0.000141387 14.998043 L 90.707752 14.998043 " stroke="#2f80ff" stroke-width="30" stroke-opacity="1" stroke-miterlimit="4"/></g><g clip-path="url(#9f7fcd51b6)"><g clip-path="url(#6ffc6ff0ee)"><g clip-path="url(#a15aff30f8)"><g transform="matrix(1, 0, 0, 1, 47, 141)"><g clip-path="url(#cf6358d545)"><g clip-path="url(#25b1bca70b)"><g clip-path="url(#5b7fa7c758)"><g clip-path="url(#4e935d542e)"><path fill="#2f80ff" d="M 20.003906 12.003906 L 0.554688 23.230469 L -9.253906 6.238281 L 10.195312 -4.992188 Z M 20.003906 12.003906 " fill-opacity="1" fill-rule="nonzero"/></g></g></g></g></g></g></g></g><g clip-path="url(#a5cbfcf82f)"><g clip-path="url(#7b1591844b)"><g transform="matrix(1, 0, 0, 1, 112, 225)"><g clip-path="url(#c8e112d642)"><g clip-path="url(#0d3be779fc)"><g clip-path="url(#ed47ad0125)"><path fill="#2f80ff" d="M 0.0976562 23.304688 L 0.0976562 0.84375 L 19.71875 0.84375 L 19.71875 23.304688 Z M 0.0976562 23.304688 " fill-opacity="1" fill-rule="nonzero"/></g></g></g></g></g></g></svg>