<svg xmlns="http://www.w3.org/2000/svg" xmlns:xlink="http://www.w3.org/1999/xlink" width="354" zoomAndPan="magnify" viewBox="0 0 265.5 313.500004" height="418" preserveAspectRatio="xMidYMid meet" version="1.0"><defs><g/><clipPath id="fbfb117e79"><path d="M 0 0.046875 L 265 0.046875 L 265 312.957031 L 0 312.957031 Z M 0 0.046875 " clip-rule="nonzero"/></clipPath><clipPath id="63c0ef3903"><path d="M 0 62 L 177 62 L 177 312.957031 L 0 312.957031 Z M 0 62 " clip-rule="nonzero"/></clipPath><clipPath id="69050c97d4"><path d="M 0 0.046875 L 265 0.046875 L 265 275 L 0 275 Z M 0 0.046875 " clip-rule="nonzero"/></clipPath><clipPath id="0d5f5b23d4"><path d="M 62 141 L 83 141 L 83 165 L 62 165 Z M 62 141 " clip-rule="nonzero"/></clipPath><clipPath id="333f5026ca"><path d="M 82.144531 152.820312 L 62.6875 164.054688 L 52.875 147.054688 L 72.332031 135.824219 Z M 82.144531 152.820312 " clip-rule="nonzero"/></clipPath><clipPath id="d932b336f5"><path d="M 62.617188 141.429688 L 62.714844 164.035156 L 82.144531 152.820312 Z M 62.617188 141.429688 " clip-rule="nonzero"/></clipPath><clipPath id="4114495ae2"><path d="M 0.523438 0.378906 L 20.164062 0.378906 L 20.164062 23.136719 L 0.523438 23.136719 Z M 0.523438 0.378906 " clip-rule="nonzero"/></clipPath><clipPath id="508f079123"><path d="M 20.144531 11.820312 L 0.6875 23.054688 L -9.125 6.054688 L 10.332031 -5.175781 Z M 20.144531 11.820312 " clip-rule="nonzero"/></clipPath><clipPath id="8e00cac213"><path d="M 0.617188 0.429688 L 0.714844 23.035156 L 20.144531 11.820312 Z M 0.617188 0.429688 " clip-rule="nonzero"/></clipPath><clipPath id="8730ee19c5"><rect x="0" width="21" y="0" height="24"/></clipPath><clipPath id="bcbe557dcd"><path d="M 127.25 225.6875 L 146.875 225.6875 L 146.875 248.152344 L 127.25 248.152344 Z M 127.25 225.6875 " clip-rule="nonzero"/></clipPath><clipPath id="8d2cc7e604"><path d="M 146.875 236.933594 L 127.25 225.71875 L 127.25 248.152344 Z M 146.875 236.933594 " clip-rule="nonzero"/></clipPath><clipPath id="f811ca59d8"><path d="M 0.25 0.699219 L 19.875 0.699219 L 19.875 23.152344 L 0.25 23.152344 Z M 0.25 0.699219 " clip-rule="nonzero"/></clipPath><clipPath id="8b8e72757e"><path d="M 19.875 11.933594 L 0.25 0.71875 L 0.25 23.152344 Z M 19.875 11.933594 " clip-rule="nonzero"/></clipPath><clipPath id="5aaa4b1ce8"><rect x="0" width="20" y="0" height="24"/></clipPath></defs><path stroke-linecap="butt" transform="matrix(0.74859, -0.000000000000000557, 0.000000000000000557, 0.74859, 15.119268, 225.710681)" fill="none" stroke-linejoin="miter" d="M 0.00243954 15.002501 L 149.794426 15.002501 " stroke="#2f80ff" stroke-width="30" stroke-opacity="1" stroke-miterlimit="4"/><g clip-path="url(#fbfb117e79)"><path stroke-linecap="butt" transform="matrix(0.374618, 0.648112, -0.648112, 0.374618, 136.973567, 41.721944)" fill="none" stroke-linejoin="miter" d="M -0.00284131 15.001274 L 283.254103 15.000903 " stroke="#2f80ff" stroke-width="30" stroke-opacity="1" stroke-miterlimit="4"/></g><g clip-path="url(#63c0ef3903)"><path stroke-linecap="butt" transform="matrix(-0.374295, 0.648298, -0.648298, -0.374295, 58.766139, 195.01202)" fill="none" stroke-linejoin="miter" d="M 0.000106926 14.997931 L 64.05202 15.001394 " stroke="#2f80ff" stroke-width="30" stroke-opacity="1" stroke-miterlimit="4"/></g><g clip-path="url(#69050c97d4)"><path stroke-linecap="butt" transform="matrix(-0.378003, 0.646143, -0.646143, -0.378003, 165.107621, 11.387778)" fill="none" stroke-linejoin="miter" d="M 0.00211975 15.00094 L 219.118557 14.997209 " stroke="#2f80ff" stroke-width="30" stroke-opacity="1" stroke-miterlimit="4"/></g><path stroke-linecap="butt" transform="matrix(0.74859, -0.000000000000000928, 0.000000000000000928, 0.74859, 176.088488, 225.710681)" fill="none" stroke-linejoin="miter" d="M 0.00181119 15.002501 L 90.708775 15.002501 " stroke="#2f80ff" stroke-width="30" stroke-opacity="1" stroke-miterlimit="4"/><g clip-path="url(#0d5f5b23d4)"><g clip-path="url(#333f5026ca)"><g clip-path="url(#d932b336f5)"><g transform="matrix(1, 0, 0, 1, 62, 141)"><g clip-path="url(#8730ee19c5)"><g clip-path="url(#4114495ae2)"><g clip-path="url(#508f079123)"><g clip-path="url(#8e00cac213)"><path fill="#2f80ff" d="M 20.144531 11.820312 L 0.6875 23.054688 L -9.125 6.054688 L 10.332031 -5.175781 Z M 20.144531 11.820312 " fill-opacity="1" fill-rule="nonzero"/></g></g></g></g></g></g></g></g><g fill="#2ed3b7" fill-opacity="1"><g transform="translate(74.753094, 297.535306)"><g><path d="M 1.65625 -28.75 L 14.875 -28.75 C 15.257812 -28.75 15.453125 -28.554688 15.453125 -28.171875 L 15.453125 -24.578125 C 15.453125 -24.191406 15.257812 -24 14.875 -24 L 10.703125 -24 L 10.703125 -0.578125 C 10.703125 -0.191406 10.515625 0 10.140625 0 L 6.390625 0 C 6.015625 0 5.828125 -0.191406 5.828125 -0.578125 L 5.828125 -24 L 1.65625 -24 C 1.269531 -24 1.078125 -24.191406 1.078125 -24.578125 L 1.078125 -28.171875 C 1.078125 -28.554688 1.269531 -28.75 1.65625 -28.75 Z M 1.65625 -28.75 "/></g></g></g><g fill="#2ed3b7" fill-opacity="1"><g transform="translate(91.282001, 297.535306)"><g><path d="M 16.5625 -23.578125 L 16.5625 -14.8125 C 16.5625 -12.414062 15.6875 -10.832031 13.9375 -10.0625 L 16.421875 -0.640625 C 16.546875 -0.210938 16.378906 0 15.921875 0 L 12.1875 0 C 11.851562 0 11.648438 -0.164062 11.578125 -0.5 L 9.171875 -9.625 L 6.6875 -9.625 L 6.6875 -0.578125 C 6.6875 -0.191406 6.492188 0 6.109375 0 L 2.375 0 C 1.988281 0 1.796875 -0.191406 1.796875 -0.578125 L 1.796875 -28.171875 C 1.796875 -28.554688 1.988281 -28.75 2.375 -28.75 L 11.390625 -28.75 C 13.085938 -28.75 14.375 -28.3125 15.25 -27.4375 C 16.125 -26.5625 16.5625 -25.273438 16.5625 -23.578125 Z M 6.6875 -14.375 L 10.25 -14.375 C 11.207031 -14.375 11.6875 -14.851562 11.6875 -15.8125 L 11.6875 -22.5625 C 11.6875 -23.519531 11.207031 -24 10.25 -24 L 6.6875 -24 Z M 6.6875 -14.375 "/></g></g></g><g fill="#2ed3b7" fill-opacity="1"><g transform="translate(109.643456, 297.535306)"><g><path d="M 2.375 -28.75 L 6.109375 -28.75 C 6.492188 -28.75 6.6875 -28.554688 6.6875 -28.171875 L 6.6875 -0.578125 C 6.6875 -0.191406 6.492188 0 6.109375 0 L 2.375 0 C 1.988281 0 1.796875 -0.191406 1.796875 -0.578125 L 1.796875 -28.171875 C 1.796875 -28.554688 1.988281 -28.75 2.375 -28.75 Z M 2.375 -28.75 "/></g></g></g><g fill="#2ed3b7" fill-opacity="1"><g transform="translate(118.123499, 297.535306)"><g><path d="M 1.796875 -11.28125 L 1.796875 -14.59375 C 1.796875 -15.070312 2.035156 -15.3125 2.515625 -15.3125 L 8.1875 -15.3125 C 8.664062 -15.3125 8.90625 -15.070312 8.90625 -14.59375 L 8.90625 -11.28125 C 8.90625 -10.800781 8.664062 -10.5625 8.1875 -10.5625 L 2.515625 -10.5625 C 2.035156 -10.5625 1.796875 -10.800781 1.796875 -11.28125 Z M 1.796875 -11.28125 "/></g></g></g><g fill="#2ed3b7" fill-opacity="1"><g transform="translate(128.831357, 297.535306)"><g><path d="M 1.65625 -28.75 L 14.875 -28.75 C 15.257812 -28.75 15.453125 -28.554688 15.453125 -28.171875 L 15.453125 -24.578125 C 15.453125 -24.191406 15.257812 -24 14.875 -24 L 10.703125 -24 L 10.703125 -0.578125 C 10.703125 -0.191406 10.515625 0 10.140625 0 L 6.390625 0 C 6.015625 0 5.828125 -0.191406 5.828125 -0.578125 L 5.828125 -24 L 1.65625 -24 C 1.269531 -24 1.078125 -24.191406 1.078125 -24.578125 L 1.078125 -28.171875 C 1.078125 -28.554688 1.269531 -28.75 1.65625 -28.75 Z M 1.65625 -28.75 "/></g></g></g><g fill="#2ed3b7" fill-opacity="1"><g transform="translate(145.360264, 297.535306)"><g><path d="M 21.453125 -28.75 L 24.875 -28.75 C 25.375 -28.75 25.597656 -28.5 25.546875 -28 L 22.46875 -0.6875 C 22.4375 -0.226562 22.179688 0 21.703125 0 L 18.1875 0 C 17.78125 0 17.515625 -0.210938 17.390625 -0.640625 L 13.65625 -16.890625 L 9.890625 -0.609375 C 9.765625 -0.203125 9.5 0 9.09375 0 L 5.5 0 C 5.019531 0 4.769531 -0.226562 4.75 -0.6875 L 1.796875 -28 C 1.742188 -28.5 1.972656 -28.75 2.484375 -28.75 L 5.890625 -28.75 C 6.347656 -28.75 6.601562 -28.519531 6.65625 -28.0625 L 8.046875 -11.25 L 8.234375 -11.25 L 11.78125 -28.109375 C 11.90625 -28.535156 12.171875 -28.75 12.578125 -28.75 L 14.734375 -28.75 C 15.160156 -28.75 15.425781 -28.535156 15.53125 -28.109375 L 19.046875 -11.25 L 19.234375 -11.25 L 20.703125 -28.0625 C 20.742188 -28.519531 20.992188 -28.75 21.453125 -28.75 Z M 21.453125 -28.75 "/></g></g></g><g fill="#2ed3b7" fill-opacity="1"><g transform="translate(171.626852, 297.535306)"><g><path d="M 1.796875 -5.171875 L 1.796875 -23.578125 C 1.796875 -25.273438 2.238281 -26.5625 3.125 -27.4375 C 4.007812 -28.3125 5.289062 -28.75 6.96875 -28.75 L 11 -28.75 C 12.695312 -28.75 13.984375 -28.3125 14.859375 -27.4375 C 15.734375 -26.5625 16.171875 -25.273438 16.171875 -23.578125 L 16.171875 -5.171875 C 16.171875 -3.492188 15.734375 -2.210938 14.859375 -1.328125 C 13.984375 -0.441406 12.695312 0 11 0 L 6.96875 0 C 5.289062 0 4.007812 -0.441406 3.125 -1.328125 C 2.238281 -2.210938 1.796875 -3.492188 1.796875 -5.171875 Z M 8.015625 -4.640625 L 10.09375 -4.640625 C 11.050781 -4.640625 11.53125 -5.117188 11.53125 -6.078125 L 11.53125 -22.671875 C 11.53125 -23.628906 11.050781 -24.109375 10.09375 -24.109375 L 8.015625 -24.109375 C 7.054688 -24.109375 6.578125 -23.628906 6.578125 -22.671875 L 6.578125 -6.078125 C 6.578125 -5.117188 7.054688 -4.640625 8.015625 -4.640625 Z M 8.015625 -4.640625 "/></g></g></g><g clip-path="url(#bcbe557dcd)"><g clip-path="url(#8d2cc7e604)"><g transform="matrix(1, 0, 0, 1, 127, 225)"><g clip-path="url(#5aaa4b1ce8)"><g clip-path="url(#f811ca59d8)"><g clip-path="url(#8b8e72757e)"><path fill="#2f80ff" d="M 0.25 23.152344 L 0.25 0.6875 L 19.875 0.6875 L 19.875 23.152344 Z M 0.25 23.152344 " fill-opacity="1" fill-rule="nonzero"/></g></g></g></g></g></g></svg>